<svg width="16" height="16" viewBox="0 0 16 16" fill="none" xmlns="http://www.w3.org/2000/svg">
<g clip-path="url(#clip0_6_164)">
<path d="M16 8.04789C16.0003 6.51897 15.5625 5.02198 14.7385 3.73417C13.9144 2.44635 12.7385 1.42165 11.3501 0.781392C9.96173 0.141135 8.41893 -0.0878599 6.90442 0.12152C5.38991 0.330901 3.96712 0.969887 2.80451 1.96282C1.6419 2.95575 0.788165 4.26104 0.344396 5.72414C-0.0993733 7.18723 -0.114591 8.74685 0.300544 10.2183C0.71568 11.6898 1.54378 13.0115 2.68679 14.0269C3.82981 15.0424 5.23986 15.709 6.75 15.9479V10.3599H4.719V8.04789H6.75V6.28489C6.70627 5.87334 6.7536 5.4572 6.88863 5.06598C7.02366 4.67476 7.24309 4.31803 7.53136 4.02107C7.81964 3.72411 8.1697 3.49419 8.55674 3.34762C8.94379 3.20104 9.35833 3.14139 9.771 3.17289C10.371 3.18077 10.9696 3.23291 11.562 3.32889V5.29989H10.554C10.3823 5.27743 10.2077 5.29388 10.0432 5.348C9.87874 5.40213 9.72853 5.49255 9.6037 5.61258C9.47887 5.7326 9.38263 5.87916 9.3221 6.0414C9.26157 6.20365 9.23829 6.37743 9.254 6.54989V8.04989H11.473L11.118 10.3619H9.25V15.9529C11.1322 15.6551 12.8464 14.6953 14.0838 13.2461C15.3213 11.7969 16.0008 9.95353 16 8.04789Z" fill="#8A8E93"/>
</g>
<defs>
<clipPath id="clip0_6_164">
<rect width="16" height="16" fill="white"/>
</clipPath>
</defs>
</svg>
