<svg width="52" height="52" viewBox="0 0 52 52" fill="none" xmlns="http://www.w3.org/2000/svg">
<rect width="52" height="52" rx="26" fill="#F2E14E"/>
<path fill-rule="evenodd" clip-rule="evenodd" d="M17 31.2747V23.4C17 21.1598 17 20.0397 17.436 19.184C17.8195 18.4314 18.4314 17.8195 19.184 17.436C20.0397 17 21.1598 17 23.4 17H28.6C30.8402 17 31.9603 17 32.816 17.436C33.5686 17.8195 34.1805 18.4314 34.564 19.184C35 20.0397 35 21.1598 35 23.4V24.6C35 26.8402 35 27.9603 34.564 28.816C34.1805 29.5686 33.5686 30.1805 32.816 30.564C31.9603 31 30.8402 31 28.6 31H24.3592C23.8579 31 23.6073 31 23.3722 31.0578C23.1637 31.109 22.9648 31.1935 22.7832 31.3079C22.5783 31.4371 22.4043 31.6174 22.0563 31.9781L21.1272 32.9411C19.8371 34.2782 19.1921 34.9468 18.6364 34.9975C18.1545 35.0415 17.6809 34.8503 17.3646 34.484C17 34.0617 17 33.1327 17 31.2747ZM21 22C21 21.4477 21.4477 21 22 21H30C30.5523 21 31 21.4477 31 22C31 22.5523 30.5523 23 30 23H22C21.4477 23 21 22.5523 21 22ZM22 25C21.4477 25 21 25.4477 21 26C21 26.5523 21.4477 27 22 27H25C25.5523 27 26 26.5523 26 26C26 25.4477 25.5523 25 25 25H22Z" fill="#374957"/>
</svg>
