<svg width="30" height="22" viewBox="0 0 30 22" fill="none" xmlns="http://www.w3.org/2000/svg">
<path d="M29.9401 10.66C28.7639 7.61765 26.722 4.98662 24.0669 3.09209C21.4117 1.19756 18.2595 0.122573 15.0001 0C11.7406 0.122573 8.58845 1.19756 5.93326 3.09209C3.27808 4.98662 1.23622 7.61765 0.0600628 10.66C-0.0193699 10.8797 -0.0193699 11.1203 0.0600628 11.34C1.23622 14.3824 3.27808 17.0134 5.93326 18.9079C8.58845 20.8024 11.7406 21.8774 15.0001 22C18.2595 21.8774 21.4117 20.8024 24.0669 18.9079C26.722 17.0134 28.7639 14.3824 29.9401 11.34C30.0195 11.1203 30.0195 10.8797 29.9401 10.66ZM15.0001 17.5C13.7145 17.5 12.4578 17.1188 11.3889 16.4046C10.3199 15.6903 9.48682 14.6752 8.99485 13.4874C8.50288 12.2997 8.37416 10.9928 8.62496 9.73191C8.87576 8.47104 9.49483 7.31285 10.4039 6.40381C11.3129 5.49476 12.4711 4.8757 13.732 4.6249C14.9929 4.37409 16.2998 4.50281 17.4875 4.99478C18.6752 5.48675 19.6904 6.31987 20.4046 7.38879C21.1188 8.45771 21.5001 9.71442 21.5001 11C21.4974 12.7231 20.8118 14.3749 19.5933 15.5933C18.3749 16.8117 16.7232 17.4974 15.0001 17.5Z" fill="white"/>
</svg>
