<svg width="14" height="18" viewBox="0 0 14 18" fill="none" xmlns="http://www.w3.org/2000/svg">
<path d="M13.2632 18H11.3684V16.1053C11.3677 15.3517 11.068 14.6293 10.5352 14.0964C10.0023 13.5636 9.27986 13.2639 8.52632 13.2632H4.73684C3.9833 13.2639 3.26084 13.5636 2.728 14.0964C2.19517 14.6293 1.89549 15.3517 1.89474 16.1053V18H0V16.1053C0.00150429 14.8494 0.501046 13.6455 1.38905 12.7575C2.27705 11.8695 3.48102 11.3699 4.73684 11.3684H8.52632C9.78214 11.3699 10.9861 11.8695 11.8741 12.7575C12.7621 13.6455 13.2617 14.8494 13.2632 16.1053V18ZM6.63158 1.89474C7.19369 1.89474 7.74319 2.06142 8.21057 2.37372C8.67795 2.68601 9.04223 3.12989 9.25734 3.64921C9.47245 4.16854 9.52874 4.73999 9.41907 5.29131C9.30941 5.84262 9.03873 6.34904 8.64125 6.74651C8.24377 7.14399 7.73736 7.41467 7.18605 7.52434C6.63473 7.634 6.06328 7.57772 5.54395 7.36261C5.02462 7.14749 4.58075 6.78321 4.26845 6.31583C3.95616 5.84845 3.78947 5.29896 3.78947 4.73684C3.78947 3.98307 4.08891 3.26017 4.62191 2.72717C5.15491 2.19417 5.87781 1.89474 6.63158 1.89474ZM6.63158 0C5.69472 0 4.7789 0.277812 3.99993 0.798302C3.22096 1.31879 2.61383 2.05859 2.25531 2.92413C1.89679 3.78968 1.80298 4.7421 1.98575 5.66095C2.16853 6.57981 2.61967 7.42384 3.28213 8.08629C3.94458 8.74875 4.78861 9.1999 5.70747 9.38267C6.62632 9.56544 7.57875 9.47163 8.44429 9.11311C9.30983 8.75459 10.0496 8.14746 10.5701 7.36849C11.0906 6.58952 11.3684 5.6737 11.3684 4.73684C11.3684 3.48055 10.8694 2.27572 9.98103 1.38739C9.0927 0.499059 7.88787 0 6.63158 0Z" fill="#8A8E93"/>
</svg>
