<svg width="60" height="60" viewBox="0 0 60 60" fill="none" xmlns="http://www.w3.org/2000/svg">
<path d="M27.9453 46.9269L33.5452 24.2357L33.3269 24.0174C33.1086 23.7991 32.7449 23.7265 32.454 23.9448L30.1266 25.4719C29.1084 24.8899 28.0902 24.4537 26.9994 24.1628L26.4175 21.4718C26.3449 21.1081 26.0539 20.8898 25.6903 20.8898L21.1093 20.8902C20.7457 20.8902 20.4547 21.1085 20.382 21.4721L19.8001 24.1631C18.7092 24.454 17.6911 24.8903 16.6729 25.4722L14.3456 23.9451C14.0547 23.7268 13.691 23.7998 13.4001 24.0178L10.2002 27.2177C9.9819 27.436 9.90925 27.8722 10.1276 28.0906L11.582 30.4179C11.0001 31.4361 10.5638 32.4543 10.2729 33.5451L7.58192 34.127C7.21831 34.1997 7 34.4906 7 34.8542V39.4359C7 39.7995 7.21831 40.0905 7.58192 40.1632L10.2729 40.7451C10.5639 41.836 11.0002 42.9268 11.582 43.8723L10.1276 46.1996C9.90925 46.4906 9.98224 46.8542 10.2002 47.0725L13.4001 50.2724C13.6184 50.4907 14.0547 50.5634 14.3456 50.3451L16.6729 48.818C17.6911 49.3999 18.7093 49.8362 19.8001 50.1271L20.382 52.8181C20.4547 53.1817 20.7457 53.4 21.1093 53.4H25.691C26.0546 53.4 26.3455 53.1817 26.4182 52.8181L27.0001 50.1271C27.3637 50.0544 27.8 49.9088 28.1636 49.7635C27.8 47.5082 27.8 47.2902 27.9453 46.9265L27.9453 46.9269ZM23.4363 43.654C19.8728 43.654 17.0362 40.745 17.0362 37.2539C17.0362 33.763 19.9451 30.8537 23.4363 30.8537C26.9998 30.8537 29.8364 33.7627 29.8364 37.2539C29.8364 40.745 26.9274 43.654 23.4363 43.654Z" fill="#8A8E93"/>
<path d="M41.1813 24.5272C44.5268 24.5272 47.3631 21.7636 47.3631 18.3454C47.3631 15.9454 45.9813 13.7637 43.7996 12.8182V9.61831C43.7996 8.16383 42.6361 7 41.1813 7C39.7268 7 38.563 8.16349 38.563 9.61831V12.8182C36.454 13.8364 34.9995 16.0181 34.9995 18.3454C35.0722 21.7636 37.8358 24.5272 41.1813 24.5272ZM41.1813 15.7278C42.5631 15.7278 43.7996 16.8187 43.7996 18.3461C43.7996 19.8006 42.5631 20.9644 41.1813 20.9644C39.6542 20.9644 38.563 19.7279 38.563 18.3461C38.563 16.8187 39.7995 15.7278 41.1813 15.7278Z" fill="#8A8E93"/>
<path d="M52.5992 47.5089L46.7083 23.6546C45.5448 24.8911 44.0173 25.691 42.3446 25.9093C42.1993 25.9093 41.981 25.9093 41.8356 25.982L44.3083 36.0183C43.4354 36.3819 42.5629 36.5272 41.69 36.6002V36.3092C41.69 35.9456 41.3264 35.582 40.9628 35.582C40.5265 35.582 40.2355 35.9456 40.2355 36.3092V36.6002C39.4357 36.5275 38.6354 36.3092 37.7629 36.0183L39.8719 27.5092C40.0172 26.8546 40.1628 26.3457 40.2355 25.909C40.0172 25.909 39.7992 25.8364 39.5082 25.7637C37.8354 25.4004 36.381 24.4549 35.3628 23.2184L29.3994 47.3642C29.3267 47.5825 29.254 47.3642 30.0539 52.8188C30.0539 53.546 30.9268 53.837 31.363 53.255C31.5813 52.9641 34.4176 49.1096 34.4176 49.0369C34.563 48.8186 34.345 49.6189 37.3266 37.4004C38.2721 37.764 39.2176 37.9093 40.1629 37.9823V38.5642C40.1629 38.9278 40.4539 39.2915 40.8901 39.2915C41.2538 39.2915 41.6174 38.9278 41.6174 38.5642V37.9823C42.6356 37.9096 43.6538 37.6913 44.5993 37.3277L47.4356 48.6729C47.5082 48.9638 47.4356 48.6729 50.6355 53.1819C50.9991 53.6908 51.872 53.4728 51.9446 52.8182C52.5991 47.5093 52.5991 47.7276 52.5991 47.5093L52.5992 47.5089Z" fill="#8A8E93"/>
</svg>
