<svg width="60" height="60" viewBox="0 0 60 60" fill="none" xmlns="http://www.w3.org/2000/svg">
<path d="M18.9275 19.818L20.8185 20.4726C20.9638 20.9815 21.1821 21.4181 21.4004 21.9271L20.5275 23.6725C20.3822 23.9634 20.4549 24.327 20.6728 24.5454L22.9275 26.8001C23.1459 27.0184 23.5095 27.0911 23.8005 26.9454L25.5459 26.0725C25.9821 26.2908 26.4914 26.5088 27.0003 26.6544L27.6549 28.5454C27.7276 28.8364 28.0185 29.0544 28.3095 29.0544H31.5094C31.8003 29.0544 32.0913 28.8361 32.2366 28.5454L32.8912 26.6544C33.4001 26.5091 33.8367 26.2908 34.3457 26.0725L36.0911 26.9454C36.382 27.0907 36.7456 27.0181 36.964 26.8001L39.2187 24.5454C39.437 24.3271 39.5097 23.9635 39.364 23.6725L38.4911 21.9271C38.7094 21.4908 38.9274 20.9816 39.073 20.4726L40.9641 19.818C41.255 19.7454 41.473 19.4544 41.473 19.0908V15.8909C41.473 15.5999 41.2547 15.309 40.9641 15.1637L39.073 14.6544C38.9277 14.1455 38.7094 13.6362 38.4911 13.1999L39.364 11.4545C39.5093 11.1635 39.4367 10.8726 39.2187 10.5816L36.891 8.25428C36.6727 8.03597 36.3091 7.96332 36.0181 8.10897L34.2727 8.98188C33.8365 8.76357 33.3272 8.54561 32.8182 8.39996L32.1637 6.50893C32.091 6.21797 31.8001 6 31.4364 6H28.2366C27.9456 6 27.6546 6.21831 27.582 6.50893L26.9274 8.39996C26.4185 8.54527 25.9819 8.76357 25.4729 8.98188L23.8001 8.18166C23.5092 8.03635 23.1455 8.109 22.9272 8.32697L20.6725 10.5817C20.4542 10.8 20.3815 11.1636 20.5272 11.4546L21.4001 13.2C21.1818 13.6363 20.9638 14.1455 20.8182 14.6545L18.9271 15.3091C18.6362 15.3817 18.4182 15.6727 18.4182 16.0363V19.2362C18.4912 19.4545 18.6365 19.7454 18.9275 19.8181L18.9275 19.818ZM29.9092 12.909C32.4545 12.909 34.4909 14.9454 34.4909 17.4907C34.4909 20.036 32.4545 22.0724 29.9092 22.0724C27.3639 22.0724 25.3275 20.036 25.3275 17.4907C25.3272 15.018 27.3636 12.909 29.9092 12.909Z" fill="#8A8E93"/>
<path d="M51.5091 34.7992H43.3636V32.3265C43.3636 31.9629 43 31.5993 42.6364 31.5993H30.6364V30.4358H29.1819V31.5993H17.1819C16.7456 31.5993 16.4547 31.9629 16.4547 32.3265V34.7992H7.72723C7.36362 34.7992 7 35.1628 7 35.5264V52.617C7 53.0533 7.36362 53.3442 7.72723 53.3442H24.3087C24.6723 53.3442 25.0359 53.0533 25.0359 52.617L25.0362 35.5264C25.0362 35.1628 24.6726 34.7992 24.309 34.7992H17.9819V33.0538H41.9819L41.9816 34.7992H34.9999C34.6363 34.7992 34.2727 35.1628 34.2727 35.5264V52.617C34.2727 53.0533 34.6363 53.3442 34.9999 53.3442H51.5813C51.9449 53.3442 52.3086 53.0533 52.3086 52.617V35.5264C52.2359 35.1628 51.9449 34.7992 51.5087 34.7992H51.5091ZM19.9457 49.1263H12.0185C11.5822 49.1263 11.2913 48.8354 11.2913 48.3991C11.2913 47.9628 11.5822 47.6719 12.0185 47.6719H19.8731C20.3094 47.6719 20.6003 47.9628 20.6003 48.3991C20.673 48.8354 20.3094 49.1263 19.9458 49.1263H19.9457ZM19.9457 44.7626H12.0185C11.5822 44.7626 11.2913 44.4717 11.2913 44.0354C11.2913 43.5991 11.5822 43.3082 12.0185 43.3082H19.8731C20.3094 43.3082 20.6003 43.5991 20.6003 44.0354C20.673 44.4717 20.3094 44.7626 19.9458 44.7626H19.9457ZM19.9457 39.0171C20.382 39.0171 20.6729 39.3081 20.6729 39.7443C20.6729 40.1806 20.382 40.4716 19.9457 40.4716H16.0186C15.5823 40.4716 15.2914 40.1806 15.2914 39.7443C15.2914 39.3081 15.5823 39.0171 16.0186 39.0171H19.9457ZM47.2183 49.1263H39.2911C38.8548 49.1263 38.5638 48.8353 38.5638 48.399C38.5638 47.9627 38.8548 47.6718 39.2911 47.6718H47.1457C47.5819 47.6718 47.8729 47.9627 47.8729 48.399C47.9456 48.8353 47.582 49.1263 47.2183 49.1263H47.2183ZM47.2183 44.7625H39.2911C38.8548 44.7625 38.5638 44.4716 38.5638 44.0353C38.5638 43.599 38.8548 43.3081 39.2911 43.3081H47.1457C47.5819 43.3081 47.8729 43.599 47.8729 44.0353C47.9456 44.4716 47.582 44.7625 47.2183 44.7625H47.2183ZM47.2183 40.4715H43.2912C42.8549 40.4715 42.564 40.1806 42.564 39.7443C42.564 39.308 42.8549 39.017 43.2912 39.017H47.2183C47.6545 39.017 47.9455 39.308 47.9455 39.7443C47.9455 40.1079 47.5819 40.4715 47.2183 40.4715Z" fill="#8A8E93"/>
</svg>
