<svg width="60" height="60" viewBox="0 0 60 60" fill="none" xmlns="http://www.w3.org/2000/svg">
<path d="M14.2225 22.7071C14.2951 22.8524 14.4408 22.998 14.6587 22.998L18.8768 24.0889L23.8951 29.1072L27.386 24.8162L22.8043 20.2345L21.7134 15.9435C21.6408 15.7252 21.5681 15.5799 21.4225 15.5072L13.2043 10.4162C12.9133 10.2709 12.5497 10.2709 12.3314 10.4889L9.20451 13.6161C8.9862 13.8344 8.91355 14.198 9.13185 14.489L14.2225 22.7071Z" fill="#8A8E93"/>
<path d="M48.9135 43.5794L38.4409 33.1068C38.15 32.8158 37.7137 32.8158 37.4227 33.1068L36.5498 33.9797L34.5861 32.016L31.0952 36.307L32.6223 37.8341L31.7494 38.707C31.4584 38.998 31.4584 39.5069 31.7494 39.7252L42.222 50.1978C43.9674 51.9432 46.8767 51.7979 48.6221 49.9795C50.5131 48.2337 50.6588 45.3248 48.913 43.5794L48.9135 43.5794Z" fill="#8A8E93"/>
<path d="M38.0766 25.4705C41.5675 26.4887 45.5676 25.3978 47.9672 22.3433C50.3672 19.4343 50.7308 15.3616 48.9854 12.0884C48.7671 11.6522 48.1125 11.5795 47.7489 11.9431L43.8944 16.6704L40.5489 16.4521L39.749 13.2519L43.6035 8.52459C43.8945 8.08832 43.7488 7.50639 43.2399 7.36111C39.749 6.34291 35.8216 7.50675 33.4213 10.4883C31.0213 13.3973 30.6577 17.543 32.4031 20.8152L19.312 36.9603C18.6574 36.815 18.0755 36.742 17.4209 36.742C14.8757 36.742 12.4757 37.9055 10.8755 39.8692C7.96658 43.5057 8.54823 48.7423 12.1121 51.6506C13.6391 52.8871 15.4576 53.5417 17.421 53.5417C19.9663 53.5417 22.3663 52.4508 23.9664 50.4145C26.0028 47.8692 26.4391 44.451 25.0573 41.5413L38.0766 25.4705ZM21.4944 47.5068C21.4944 47.7977 21.3491 48.0157 21.0581 48.0887L17.4216 49.8341C17.1306 49.9794 16.9127 49.9068 16.6943 49.7614L13.3488 47.5067C13.1305 47.3614 12.9852 47.1431 13.0579 46.8522L13.3488 42.7794C13.3488 42.4884 13.4941 42.2704 13.7851 42.1974L17.4216 40.452C17.6399 40.3067 17.9305 40.3794 18.1489 40.5247L21.4944 42.852C21.7127 42.9973 21.858 43.2156 21.7853 43.5066L21.4944 47.5068Z" fill="#8A8E93"/>
</svg>
