<svg width="60" height="60" viewBox="0 0 60 60" fill="none" xmlns="http://www.w3.org/2000/svg">
<path d="M49.0358 21.7815L45.5449 20.618C45.254 19.5998 44.8177 18.6543 44.3814 17.7091L45.9816 14.4362C46.1269 14.1452 46.0542 13.8542 45.8363 13.6363L41.9085 9.70884C41.6902 9.49053 41.3266 9.41788 41.0356 9.56353L37.7626 11.2363C36.8171 10.7274 35.8716 10.2908 34.8537 9.99981L33.6902 6.50893C33.6175 6.21797 33.3266 6 32.963 6H27.4358C27.1448 6 26.8538 6.21831 26.7812 6.50893L25.6177 9.99981C24.5995 10.2908 23.654 10.727 22.7087 11.2363L19.4358 9.56353C19.1449 9.41822 18.7812 9.49087 18.6359 9.70884L14.7085 13.6359C14.4902 13.8542 14.4175 14.2178 14.5632 14.4358L16.1633 17.7087C15.6544 18.6542 15.2904 19.5998 14.9998 20.6177L11.5089 21.7812C11.218 21.8538 11 22.1448 11 22.5084V28.0356C11 28.3266 11.2183 28.6175 11.5089 28.6902L14.9998 29.8537C15.2908 30.8719 15.727 31.8174 16.1633 32.7627L14.5632 36.0356C14.4179 36.3265 14.4905 36.6175 14.7085 36.9085L18.6356 40.8356C18.7809 40.9809 18.9992 41.0539 19.1445 41.0539C19.2898 41.0539 19.3628 41.0539 19.4355 40.9812L22.7084 39.3811C23.2173 39.5994 23.6539 39.89 24.1629 40.0357L24.7448 36.4722C20.963 34.6541 18.3447 31.0903 17.7631 26.945C16.9632 21.2721 20.0178 15.9633 25.3267 13.6362C26.7085 12.9816 28.3813 13.9998 28.3813 15.6726V23.0909C28.3813 24.1818 29.3268 25.1273 30.4903 25.1273C31.6538 25.1273 32.5993 24.2544 32.5993 23.0909V15.6729C32.5993 14.0728 34.2721 13.0546 35.6539 13.7092C40.2356 15.6729 43.2902 20.2546 43.2902 25.2001C43.2902 30.0728 40.5266 34.3638 36.1629 36.4732L36.7448 39.8914C37.1084 39.7461 37.472 39.5278 37.8357 39.3825L41.1086 40.9826C41.3996 41.1279 41.7632 41.0553 41.9815 40.8373L45.9086 36.9102C46.1269 36.6919 46.1996 36.3283 46.0539 36.0373L44.4538 32.7644C44.9627 31.8189 45.3267 30.8733 45.6903 29.8554L49.1812 28.6919C49.4722 28.6193 49.6901 28.3283 49.6901 28.0373V22.5101C49.5448 22.1459 49.3268 21.9279 49.0359 21.7822L49.0358 21.7815Z" fill="#8A8E93"/>
<path d="M34.563 35.5995L36.3084 46.3635C36.8903 49.927 34.1267 53.2725 30.4902 53.2725C26.8537 53.2725 24.0174 49.9996 24.5993 46.3635L26.3447 35.6003C22.4902 34.1458 19.7266 30.7276 19.2174 26.7272C18.4901 21.7089 21.1811 16.9815 25.9084 14.9458C26.4173 14.7275 26.9266 15.0911 26.9266 15.6003L26.9263 23.091C26.9263 24.982 28.5264 26.5819 30.4897 26.5819C32.4535 26.5819 34.0532 25.0548 34.0532 23.091L34.0536 15.6727C34.0536 15.1637 34.6355 14.7998 35.0718 15.0181C39.2172 16.7635 41.8355 20.8363 41.8355 25.2001C41.8355 29.8548 38.9263 33.9275 34.5628 35.5998L34.563 35.5995Z" fill="#8A8E93"/>
</svg>
