<svg width="60" height="60" viewBox="0 0 60 60" fill="none" xmlns="http://www.w3.org/2000/svg">
<path d="M50.1818 35.0727V36.5272C50.1818 36.8908 49.9635 37.1818 49.5999 37.2545L46.1817 37.9817C45.8181 39.3635 45.2362 40.6727 44.5089 41.9818L46.3999 44.8908C46.6182 45.1817 46.5452 45.5454 46.3272 45.8363L42.4002 49.7634C42.1819 49.9817 41.8182 50.0543 41.4546 49.836L38.5457 47.945C37.3092 48.6722 35.9274 49.2541 34.5456 49.6178L33.8183 53.036C33.7457 53.3996 33.4547 53.6179 33.0911 53.6179H27.4912C27.1276 53.6179 26.8366 53.3996 26.764 53.036L26.0367 49.6178C24.6549 49.2542 23.2731 48.6723 22.0366 47.945L19.1277 49.836C18.8367 50.0544 18.4731 49.9814 18.2547 49.7634L14.327 45.7636C14.1087 45.5453 14.036 45.1817 14.2543 44.8181L16.1453 41.9091C15.4181 40.6726 14.8362 39.2908 14.4725 37.909L11.0543 37.1818C10.6907 37.1091 10.4724 36.8182 10.4724 36.4545V35.0001H21.8904C22.6176 39.0002 26.1085 42.0548 30.3269 42.0548C34.545 42.0548 38.0359 39.0002 38.7634 35.0001H50.1814L50.1818 35.0727Z" fill="#8A8E93"/>
<path d="M17.018 13.7637C15.5635 15.0002 14.327 16.382 13.3088 17.9091L21.0178 21.3273L17.018 13.7637Z" fill="#8A8E93"/>
<path d="M50.9085 28.8182C50.8359 25.5453 49.8903 22.3454 48.3633 19.5816L38.909 23.5817C38.6907 23.6544 38.327 23.6544 38.1091 23.4364C37.8908 23.2181 37.8181 22.8545 37.9638 22.6365L42.6907 13.0365C40.5091 11.3637 37.8907 10.1275 35.1271 9.47303C34.8362 8.09089 33.6001 7 32.0725 7H28.5817C27.0546 7 25.8181 8.09089 25.5271 9.47269C22.8361 10.1273 20.3635 11.2908 18.1818 12.8909L23.2728 22.6366C23.4181 22.9276 23.3454 23.2185 23.1275 23.4365C22.9092 23.6548 22.5455 23.7274 22.3276 23.5818L12.509 19.2181C10.8362 22.1271 9.89069 25.3999 9.7454 28.8909C8.7272 29.1819 8 30.1275 8 31.2183C8 32.5274 9.09089 33.6183 10.4 33.6183H50.1817C51.4908 33.6183 52.5817 32.5274 52.5817 31.2183C52.654 30.0551 51.9268 29.1099 50.9086 28.8189L50.9085 28.8182ZM15.7811 29.9817C15.4902 30.2726 15.0539 30.2726 14.7629 29.9817C14.4719 29.6907 14.472 29.2544 14.7629 28.9635C15.0539 28.6725 15.4901 28.6725 15.7811 28.9635C15.9991 29.2544 15.9991 29.6907 15.7811 29.9817ZM19.7809 30.2C19.4173 30.2 19.0536 29.909 19.0536 29.4727C19.0536 29.1091 19.3446 28.7455 19.7809 28.7455C20.0718 28.7455 20.2898 28.8908 20.4355 29.1818C20.6538 29.618 20.2901 30.2 19.7809 30.2ZM40.8717 30.2C40.5081 30.2 40.1445 29.8363 40.1445 29.4727C40.1445 29.1091 40.4355 28.7455 40.8717 28.7455C41.2354 28.7455 41.599 29.1091 41.599 29.4727C41.6716 29.909 41.308 30.2 40.8717 30.2Z" fill="#8A8E93"/>
<path d="M47.6359 18.3456C46.6177 16.7455 45.3086 15.2184 43.8541 13.9819L40.145 21.4729L47.6359 18.3456Z" fill="#8A8E93"/>
</svg>
