<svg width="60" height="60" viewBox="0 0 60 60" fill="none" xmlns="http://www.w3.org/2000/svg">
<path d="M50.8543 7H9.69091C8.96368 7 8.30911 7.29096 7.79989 7.79989C7.29096 8.30915 7 9.0364 7 9.69091C7 11.0727 8.0182 12.2362 9.4 12.3819H9.69096H50.7815H51.0725C51.6544 12.3093 52.236 12.0183 52.6726 11.582C53.2542 11.1454 53.5452 10.4182 53.5452 9.691C53.5452 8.23651 52.3087 7 50.8542 7H50.8543Z" fill="#8A8E93"/>
<path d="M30.2726 21.4727C28.2362 21.4727 26.7091 22.9271 26.3455 24.6725C26.1272 25.7634 26.3455 26.7815 26.9274 27.6545C27.6547 28.7453 28.0909 29.8361 28.1639 31H32.3093C32.4546 28.0181 34.2004 27.7271 34.2004 25.4001C34.1997 23.2181 32.4543 21.4727 30.2726 21.4727H30.2726Z" fill="#8A8E93"/>
<path d="M50.8542 13.9091H9.6908H9.25453C9.10922 13.9091 8.96358 13.8364 8.74561 13.8364V37.6907C8.74561 39.6544 10.3457 41.3272 12.3821 41.3272H23.1453L16.2363 52.3818C16.018 52.7454 16.1636 53.1817 16.4546 53.4C16.8182 53.6183 17.2545 53.4726 17.4728 53.1817L24.6728 41.618C24.7454 41.5453 24.7454 41.4726 24.7454 41.3997H30.5636V51.2182C30.5636 51.6545 30.9272 51.9455 31.2909 51.9455C31.7271 51.9455 32.0181 51.6545 32.0181 51.2182L32.0178 41.2548H37.836C37.836 41.3275 37.9086 41.4001 37.9086 41.4731L45.1086 53.0368C45.3269 53.3278 45.7632 53.4731 46.1268 53.2551C46.4904 53.0368 46.5631 52.6005 46.3451 52.2369L39.4361 41.1824H48.0907C50.0544 41.1824 51.7272 39.5822 51.7272 37.5458V13.7635C51.5819 13.8362 51.4362 13.8362 51.2183 13.8362C51.1453 13.9089 50.9996 13.9089 50.8543 13.9089L50.8542 13.9091ZM38.9271 25.0365C38.9271 25.4001 38.6361 25.6184 38.3452 25.6184H36.8181C36.4545 25.6184 36.2362 25.3275 36.2362 25.0365C36.2362 24.7455 36.5271 24.4546 36.8181 24.4546H38.2726C38.6362 24.4546 38.9271 24.7455 38.9271 25.0365H38.9271ZM35.4362 21.3274L36.7453 20.5275C37.0363 20.3822 37.3999 20.4548 37.6182 20.7458C37.7635 21.0368 37.6909 21.4004 37.3999 21.6187L36.0908 22.4186C35.7999 22.5639 35.4362 22.4913 35.2179 22.2003C35.0726 21.8367 35.1452 21.4731 35.4362 21.3274ZM32.7452 19.291L33.5451 17.9819C33.6904 17.6909 34.127 17.6182 34.418 17.7636C34.709 17.9089 34.7816 18.3455 34.6363 18.6365L33.8364 19.9456C33.6911 20.2365 33.2545 20.3092 32.9635 20.1639C32.6726 19.9456 32.5999 19.582 32.7452 19.291ZM29.3997 17.3273C29.3997 16.9636 29.6906 16.7453 29.9816 16.7453C30.3452 16.7453 30.5635 17.0363 30.5635 17.3273V18.8543C30.5635 19.218 30.2726 19.4363 29.9816 19.4363C29.618 19.4363 29.3997 19.1453 29.3997 18.8543V17.3273ZM25.6908 17.9818C25.9818 17.8365 26.3454 17.9092 26.5637 18.2001L27.3636 19.5093C27.5089 19.8002 27.4363 20.1638 27.1453 20.3822C26.8544 20.5275 26.4908 20.4548 26.2724 20.1639L25.4725 18.8548C25.3272 18.5638 25.3999 18.2002 25.6908 17.9818ZM22.6362 21.2548C22.7815 20.9638 23.2182 20.8911 23.5091 21.0364L24.8183 21.8363C25.1092 21.9816 25.1819 22.4183 25.0366 22.7092C24.8913 23.0002 24.4546 23.0729 24.1637 22.9276L22.8545 22.1277C22.5636 21.9094 22.4906 21.5457 22.6362 21.2548ZM21.618 25.6185C21.618 25.2548 21.909 25.0365 22.2 25.0365H23.727C24.0907 25.0365 24.309 25.3275 24.309 25.6185C24.309 25.9821 24.018 26.2004 23.727 26.2004L22.2726 26.2001C21.9089 26.2001 21.618 25.9821 21.618 25.6185H21.618ZM25.1089 29.3273L23.7998 30.1272C23.5088 30.2725 23.1452 30.1999 22.9269 29.9089C22.7816 29.6179 22.8542 29.2543 23.1452 29.036L24.4543 28.2361C24.7453 28.0908 25.1089 28.1634 25.3272 28.4544C25.5452 28.8184 25.3999 29.182 25.1089 29.3273ZM33.5454 31.6546C33.5454 32.0183 33.2545 32.2366 32.9635 32.2366V34.2003C32.9635 35.7274 31.727 36.8913 30.2725 36.8913C28.7454 36.8913 27.5815 35.6548 27.5815 34.2003V32.2366C27.2906 32.2366 26.9996 31.9456 26.9996 31.6546C26.9996 31.4363 27.2179 30.2002 25.9814 28.3817C25.1815 27.2182 24.8905 25.8364 25.1088 24.382C25.5451 22.0546 27.5815 20.1639 30.1998 20.1639C33.1088 20.1639 35.4361 22.4912 35.4361 25.4002C35.4361 28.2364 33.5451 28.6 33.5451 31.3636L33.5454 31.6546ZM37.0363 29.6182L35.7272 28.8184C35.4362 28.673 35.3636 28.2364 35.5089 27.9454C35.6542 27.6545 36.0908 27.5818 36.3818 27.7271L37.6909 28.527C37.9819 28.6723 38.0545 29.1089 37.9092 29.3999C37.6909 29.6912 37.3273 29.7639 37.0363 29.6182Z" fill="#8A8E93"/>
<path d="M28.7451 34.2004C28.7451 35.0003 29.3997 35.7275 30.2722 35.7275C31.0721 35.7275 31.7993 35.0729 31.7993 34.2004V32.2367H28.8174L28.8177 34.2004H28.7451Z" fill="#8A8E93"/>
</svg>
