<svg width="230" height="268" viewBox="0 0 230 268" fill="none" xmlns="http://www.w3.org/2000/svg">
<path d="M47.7105 44.0648C48.675 32.6284 56.8046 8.01923 81.6066 1.07466H95.2477C100.484 1.48803 111.204 7.02715 118.81 25.8767M47.7105 44.0648C60.9382 34.9708 65.4853 26.2901 90.2873 22.1564C106.491 21.8257 113.023 24.4988 114.263 25.8767L117.983 26.5531M47.7105 44.0648L46.057 48.1985M117.983 26.5531L118.81 26.7034C118.81 27.6955 122.117 37.0376 120.463 45.3049M117.983 26.5531C121.703 27.7055 129.557 29.597 129.557 34.9708C128.317 41.5846 123.357 44.0648 120.463 45.3049M120.463 45.3049L117.156 48.1985L114.263 50.6787M114.263 50.6787V69.6936C111.369 77.1342 105.251 92.4288 103.928 94.0823C102.606 95.7357 98.968 95.3224 97.3146 94.909M114.263 50.6787V32.4906C87.4764 17.94 61.4894 36.3487 51.8442 47.3718L46.057 48.1985M97.3146 94.909C100.07 92.0154 103.928 85.3189 97.3146 81.6813H87.3937C84.5002 84.5748 81.0279 91.2714 90.2873 94.909H97.3146ZM46.057 48.1985C45.7814 51.6432 47.5451 60.1035 56.8046 66.3867M56.8046 66.3867L53.911 61.0129V49.0253H56.8046M56.8046 66.3867L58.458 68.8669M58.458 68.8669H63.4184M58.458 68.8669V84.5748M58.458 84.5748C62.8673 84.2993 76.0675 88.8739 93.5943 109.377L97.3146 113.924V118.884L94.8344 95.3224M58.458 84.5748L48.9506 94.0823L46.057 96.1491C36.5496 96.9758 16.7906 99.2907 13.8144 101.936C10.0941 104.416 2.5708 112.518 2.2401 125.085L1 138.313V168.902L2.2401 178.823L3.4802 186.677L5.54704 195.771L6.37377 212.719M6.37377 212.719L9.26734 208.172L8.02724 198.251L6.37377 184.196L12.1609 170.969H5.54704V136.246L6.37377 131.699L17.9481 119.711L9.26734 122.605L6.37377 123.845C7.06272 118.195 9.51536 106.483 13.8144 104.83H22.4951C31.727 112.546 50.2734 131.616 50.6041 146.167V189.57L48.9506 192.464L38.203 194.531L32.0025 195.771L27.4555 198.251V215.199H32.0025L38.203 208.998L50.6041 195.771L52.6709 194.531L56.8046 193.704M6.37377 212.719C7.03516 217.348 17.1213 229.253 22.0817 234.627M56.8046 193.704L55.9778 203.211L54.3244 211.065L52.6709 216.439M56.8046 193.704C59.4226 191.361 65.9813 187.669 71.2724 191.637L76.6462 202.384L79.9531 208.998L82.02 218.506L83.2601 223.466V225.946L87.8071 226.773L90.2873 225.946L94.8344 223.466L95.6611 223.148M102.688 218.506C101.72 219.636 100.208 221.399 100.208 221.399L95.6611 223.148M102.688 218.506C101.72 217.699 100.208 216.439 100.208 216.439L97.3146 217.266L93.5943 218.506H91.5274L85.7403 211.892L81.1932 206.932L78.713 203.211L76.6462 199.491V187.503V181.303L77.8863 176.342L78.713 173.449L81.1932 168.902V163.941H87.8071L89.0472 165.595L91.5274 168.902L92.3542 173.449L91.5274 181.303L92.3542 182.956V185.85L95.6611 187.503L98.5547 189.57H107.649H114.263L116.743 191.637V193.704V195.771L114.263 197.424M102.688 218.506C103.98 217.699 105.995 216.439 105.995 216.439H117.983H122.943L126.25 215.199H136.584C139.23 210.238 136.309 208.447 134.518 208.172L129.144 206.105L127.077 206.932L118.81 208.172M102.688 218.506L118.81 219.333L126.25 266.87H229.592M114.263 197.424L103.928 199.491L97.3146 200.731H93.5943M114.263 197.424H120.876C122.53 197.286 125.754 197.755 125.424 200.731C125.093 203.707 120.876 206.932 118.81 208.172M93.5943 200.731L89.0472 197.424M93.5943 200.731V203.211L94.8344 206.932L95.6611 208.998L96.4878 210.238H99.3814L109.716 208.998L114.263 208.172H118.81M95.6611 223.148L94.8344 226.773L92.3542 230.08L89.0472 233.387L85.7403 236.281H44.4036L22.0817 234.627M22.0817 234.627L13.8144 266.87" stroke="#374957"/>
</svg>
